
<svg xmlns="http://www.w3.org/2000/svg">
<!-- Master Logo -->
  <symbol id="logo" viewBox="0 0 256 256" style="fill-rule:evenodd;clip-rule:evenodd;stroke-linejoin:round;stroke-miterlimit:2;">
    <g transform="matrix(1.33712,0,0,1.33712,-299.877,-139.423)">
        <path d="M316,117.309C318.475,115.88 321.525,115.88 324,117.309C336.82,124.711 376.792,147.789 389.612,155.191C392.087,156.62 393.612,159.261 393.612,162.119L393.612,237.881C393.612,240.739 392.087,243.38 389.612,244.809C376.792,252.211 336.82,275.289 324,282.691C321.525,284.12 318.475,284.12 316,282.691C303.18,275.289 263.208,252.211 250.388,244.809C247.913,243.38 246.388,240.739 246.388,237.881L246.388,162.119C246.388,159.261 247.913,156.62 250.388,155.191C263.208,147.789 303.18,124.711 316,117.309ZM306,227C306,229.209 304.209,231 302,231L275.503,231C274.442,231 273.424,230.579 272.674,229.828C271.924,229.078 271.503,228.061 271.503,227L271.503,174.309C271.503,172.88 272.265,171.56 273.503,170.845C281.369,166.304 310.134,149.696 318,145.155C319.238,144.44 320.762,144.44 322,145.155C329.866,149.696 358.631,166.304 366.497,170.845C367.735,171.56 368.497,172.88 368.497,174.309L368.497,227C368.497,228.061 368.076,229.078 367.326,229.828C366.576,230.579 365.558,231 364.497,231L338,231C335.791,231 334,229.209 334,227L334,196C334,194.939 333.579,193.922 332.828,193.172C332.078,192.421 331.061,192 330,192L310,192C308.939,192 307.922,192.421 307.172,193.172C306.421,193.922 306,194.939 306,196L306,227Z" style="fill:white;"/>
    </g>
  </symbol>
<!-- Missing App Icon -->
  <symbol id="nullApp" viewBox="0 0 96 96" style="fill-rule:evenodd;clip-rule:evenodd;stroke-linejoin:round;stroke-miterlimit:2;">
    <g transform="matrix(1.40761,0,0,1.40761,1.50275,-0.101506)">
        <path d="M-1.068,34.172C-1.068,59.082 7.332,68.273 33.033,68.273C58.734,68.273 67.133,58.906 67.133,34.172C67.133,9.439 58.646,0.072 33.033,0.072C7.419,0.072 -1.068,9.263 -1.068,34.172Z" style="fill:rgb(244,67,54);"/>
    </g>
    <g transform="matrix(2.9,0,0,2.9,13.1999,13.2)">
        <path d="M11,15L13,15L13,17L11,17L11,15M11,13L13,13L13,7L11,7L11,13M22,5.5L22,16L16,22L5.5,22C3.6,22 2,20.4 2,18.5L2,5.5C2,3.6 3.6,2 5.5,2L18.5,2C20.4,2 22,3.6 22,5.5M20,5.8C20,4.8 19.2,4 18.2,4L5.8,4C4.8,4 4,4.8 4,5.8L4,18.3C4,19.3 4.8,20.1 5.8,20.1L15,20.1L15,18.6C15,16.7 16.6,15.1 18.5,15.1L20,15.1L20,5.8Z" style="fill:white;fill-rule:nonzero;"/>
    </g>
  </symbol>
</svg>
