<?xml version="1.0" encoding="UTF-8" standalone="no"?>
<!DOCTYPE svg PUBLIC "-//W3C//DTD SVG 1.1//EN" "http://www.w3.org/Graphics/SVG/1.1/DTD/svg11.dtd">
<svg width="100%" height="100%" viewBox="0 0 96 96" version="1.1" xmlns="http://www.w3.org/2000/svg" xmlns:xlink="http://www.w3.org/1999/xlink" xml:space="preserve" xmlns:serif="http://www.serif.com/" style="fill-rule:evenodd;clip-rule:evenodd;stroke-linejoin:round;stroke-miterlimit:2;">
    <g id="AffinityPublisher">
        <g transform="matrix(1.40761,0,0,1.40761,1.50275,-0.101506)">
            <path d="M-1.068,34.172C-1.068,59.082 7.332,68.273 33.033,68.273C58.734,68.273 67.133,58.906 67.133,34.172C67.133,9.439 58.646,0.072 33.033,0.072C7.419,0.072 -1.068,9.263 -1.068,34.172Z" style="fill:url(#_Linear1);"/>
        </g>
        <g transform="matrix(0.0232039,0,0,0.0231302,18.9498,21.6399)">
            <path d="M975.661,0L1369.32,0L1402.25,57.347L1515.09,57.347L2499.6,1762.95L2287.61,2124.42L1425.92,2124.42L1513.24,2275L1475.13,2275L1387.82,2124.42L318.208,2124.42L263.451,2028.22L195.745,2028.22L0.026,1689.32L0.396,1689.32L251.242,1254.23L483.589,1120.3L867.997,454.704L790.671,320.772L975.661,0ZM1207.64,588.636L527.616,1763.32L1178.41,1763.32L1103.3,1633.46L1812.55,1634.2L1207.64,588.636Z" style="fill:white;fill-rule:nonzero;"/>
        </g>
    </g>
    <defs>
        <linearGradient id="_Linear1" x1="0" y1="0" x2="1" y2="0" gradientUnits="userSpaceOnUse" gradientTransform="matrix(68.2007,-68.2007,68.2007,68.2007,-1.06759,68.2728)"><stop offset="0" style="stop-color:rgb(200,40,77);stop-opacity:1"/><stop offset="1" style="stop-color:rgb(254,159,96);stop-opacity:1"/></linearGradient>
    </defs>
</svg>
