<?xml version="1.0" encoding="UTF-8" standalone="no"?>
<!DOCTYPE svg PUBLIC "-//W3C//DTD SVG 1.1//EN" "http://www.w3.org/Graphics/SVG/1.1/DTD/svg11.dtd">
<svg width="100%" height="100%" viewBox="0 0 96 96" version="1.1" xmlns="http://www.w3.org/2000/svg" xmlns:xlink="http://www.w3.org/1999/xlink" xml:space="preserve" xmlns:serif="http://www.serif.com/" style="fill-rule:evenodd;clip-rule:evenodd;stroke-linejoin:round;stroke-miterlimit:2;">
    <g id="Fusion">
        <g transform="matrix(1.40761,0,0,1.40761,1.50275,-0.101506)">
            <path d="M-1.068,34.172C-1.068,59.082 7.332,68.273 33.033,68.273C58.734,68.273 67.133,58.906 67.133,34.172C67.133,9.439 58.646,0.072 33.033,0.072C7.419,0.072 -1.068,9.263 -1.068,34.172Z" style="fill:rgb(247,200,2);"/>
        </g>
        <g transform="matrix(0.0873107,0,0,0.0873107,7.50507,2.01829)">
            <path d="M481.389,733.039C516.092,733.039 544.266,761.213 544.266,795.916C544.266,830.618 516.092,858.792 481.389,858.792C446.686,858.792 418.512,830.618 418.512,795.916C418.512,761.213 446.686,733.039 481.389,733.039ZM584.35,503.745C596.337,487.238 613.871,474.604 635.115,468.997C684.071,456.075 734.308,485.33 747.23,534.286C760.152,583.242 730.897,633.479 681.941,646.401C655.689,653.33 629.068,648.131 608.031,634.269C603.675,631.945 592.585,626.439 574.786,620.323C544.471,609.905 498.629,626.426 481.183,652.401C470.004,669.046 461.929,680.915 461.929,680.915C449.93,698.685 431.693,712.351 409.354,718.248C360.398,731.17 310.161,701.915 297.239,652.959C284.316,604.003 313.571,553.766 362.527,540.844C388.057,534.105 413.935,538.836 434.688,551.85C441.562,555.023 449.956,558.932 458.734,563.102C492.098,578.955 539.381,566.003 561.066,537.006C573.251,520.713 584.201,502.988 584.201,502.988L584.35,503.745ZM546.241,245.016C562.261,222.957 585.692,206.074 614.081,198.581C679.503,181.313 746.636,220.407 763.905,285.829C781.173,351.25 742.078,418.384 676.657,435.652C641.575,444.912 606,437.965 577.887,419.441C572.067,416.334 557.247,408.977 533.461,400.803C492.95,386.881 431.69,408.958 408.376,443.671C393.437,465.914 382.647,481.775 382.647,481.775C366.612,505.521 342.241,523.784 312.388,531.664C246.966,548.932 179.833,509.838 162.564,444.416C145.296,378.994 184.39,311.861 249.812,294.592C283.928,285.587 318.51,291.91 346.243,309.301C355.429,313.54 366.646,318.764 378.376,324.337C422.962,345.522 486.148,328.213 515.126,289.464C531.41,267.691 546.043,244.004 546.043,244.004L546.241,245.016Z" style="fill:white;"/>
        </g>
    </g>
</svg>
