<?xml version="1.0" encoding="UTF-8" standalone="no"?>
<!DOCTYPE svg PUBLIC "-//W3C//DTD SVG 1.1//EN" "http://www.w3.org/Graphics/SVG/1.1/DTD/svg11.dtd">
<svg width="100%" height="100%" viewBox="0 0 96 96" version="1.1" xmlns="http://www.w3.org/2000/svg" xmlns:xlink="http://www.w3.org/1999/xlink" xml:space="preserve" xmlns:serif="http://www.serif.com/" style="fill-rule:evenodd;clip-rule:evenodd;stroke-linejoin:round;stroke-miterlimit:2;">
    <g id="Houdini">
        <g transform="matrix(1.40761,0,0,1.40761,1.50275,-0.101506)">
            <path d="M-1.068,34.172C-1.068,59.082 7.332,68.273 33.033,68.273C58.734,68.273 67.133,58.906 67.133,34.172C67.133,9.439 58.646,0.072 33.033,0.072C7.419,0.072 -1.068,9.263 -1.068,34.172Z" style="fill:rgb(230,97,26);"/>
        </g>
        <g transform="matrix(1.3077,0,0,1.3077,-408.387,-350.849)">
            <path d="M334.923,325.647C331.935,323.974 329.614,321.265 328.353,318.083L328.353,325.647L334.923,325.647M369.647,325.647L369.647,284.353L328.353,284.353L328.353,296.216C332.269,293.247 337.067,291.672 341.98,291.739C353.674,291.739 361.107,299.923 361.097,310.227C361.097,317.388 357.756,322.841 352.519,325.647L369.647,325.647M355.917,310.256C355.782,302.67 349.566,296.476 341.98,296.366C336.905,296.037 331.929,297.929 328.353,301.546L328.353,308.782C330.28,303.44 335.42,299.89 341.098,299.979C347.161,300.035 351.834,304.615 351.862,309.777C351.862,314.713 349.816,318.355 344.232,319.246C341.192,319.734 336.424,317.951 336.631,313.353C336.699,311.342 338.371,309.725 340.383,309.725C340.49,309.725 340.597,309.73 340.704,309.739C338.63,312.555 341.379,314.554 343.313,314.132C345.313,313.69 346.735,311.881 346.691,309.833C346.691,308.088 345.049,305.272 340.966,305.366C340.917,305.365 340.866,305.365 340.816,305.365C336.327,305.365 332.633,309.059 332.633,313.549L332.633,313.606C332.501,319.237 337.785,322.991 343.209,323.038C351.196,323.141 355.926,317.914 355.917,310.256" style="fill:white;"/>
        </g>
    </g>
</svg>
