<?xml version="1.0" encoding="UTF-8" standalone="no"?>
<!DOCTYPE svg PUBLIC "-//W3C//DTD SVG 1.1//EN" "http://www.w3.org/Graphics/SVG/1.1/DTD/svg11.dtd">
<svg width="100%" height="100%" viewBox="0 0 96 96" version="1.1" xmlns="http://www.w3.org/2000/svg" xmlns:xlink="http://www.w3.org/1999/xlink" xml:space="preserve" xmlns:serif="http://www.serif.com/" style="fill-rule:evenodd;clip-rule:evenodd;stroke-linejoin:round;stroke-miterlimit:2;">
    <g id="Mari">
        <g transform="matrix(1.40761,0,0,1.40761,1.50275,-0.101506)">
            <path d="M-1.068,34.172C-1.068,59.082 7.332,68.273 33.033,68.273C58.734,68.273 67.133,58.906 67.133,34.172C67.133,9.439 58.646,0.072 33.033,0.072C7.419,0.072 -1.068,9.263 -1.068,34.172Z" style="fill:rgb(252,180,52);"/>
        </g>
        <g transform="matrix(1.16813,0,0,1.16813,-359.727,-308.329)">
            <path d="M349,280.174C335.381,280.174 324.174,291.381 324.174,305C324.174,318.619 335.381,329.826 349,329.826C362.619,329.826 373.826,318.619 373.826,305C373.826,291.381 362.619,280.174 349,280.174M349.034,327.264L349,327.264C336.787,327.246 326.747,317.191 326.747,304.978C326.747,292.751 336.808,282.691 349.034,282.691C361.26,282.691 371.321,292.751 371.321,304.978C371.321,317.204 361.26,327.264 349.034,327.264M349.767,320.889C349.553,320.719 349.474,320.584 349.124,320.618C349.065,320.624 349.006,320.637 348.951,320.656C349.191,320.53 349.409,320.307 349.542,320.11C349.798,319.591 349.798,318.981 349.542,318.463C349.361,318.124 349.305,318.18 349.237,317.108C349.361,316.273 348.989,316.149 348.989,315.856C348.989,315.562 349.102,315.393 349.542,315.077C350.031,314.68 350.638,314.454 351.268,314.434C352.487,314.22 353.074,314.784 353.807,315.63C354.541,316.476 355.974,315.957 355.974,315.957C357.102,315.585 356.188,314.772 355.895,314.253C355.601,313.734 356.053,313.52 356.967,313.362C357.881,313.204 358.095,312.719 357.96,312.064C357.825,311.41 357.96,311.511 358.163,311.173C358.366,310.834 358.366,310.868 358.761,310.891C359.329,311.027 359.855,311.298 360.296,311.681C360.437,311.859 360.605,312.015 360.792,312.143C360.848,312.158 360.906,312.158 360.962,312.143C361.943,312.143 361.492,312.493 361.718,312.809C361.807,312.951 361.943,313.058 362.101,313.114C362.79,313.407 363.851,313.418 363.23,312.391C363.084,312.094 362.781,311.905 362.45,311.905C362.291,311.905 362.135,311.948 362,312.03L361.876,312.019C361.413,312.233 361.413,311.771 361.413,311.647C361.345,311.365 360.725,311.15 360.522,311.139C359.933,311.072 359.393,310.776 359.021,310.315C358.558,309.717 358.829,309.322 359.269,309.006C359.709,308.69 359.506,308.667 360.07,308.453C360.37,308.37 360.631,308.182 360.804,307.923C361.082,307.616 361.449,307.403 361.853,307.313C362.152,307.269 362.432,307.135 362.654,306.93C362.801,306.817 362.993,306.456 362.35,306.377C361.891,306.341 361.474,306.095 361.221,305.711C361.142,305.497 361.052,304.819 360.217,305.181C359.088,305.564 358.434,305.395 358.118,305.057C357.647,304.374 357.311,303.608 357.125,302.8C357.057,302.235 357.023,302.19 356.369,301.073C355.714,299.956 356.515,299.076 356.978,298.478C357.553,297.922 358.232,297.485 358.975,297.191C359.585,296.785 359.382,295.905 358.502,295.566C356.922,294.855 356.854,296.221 356.741,296.909C356.628,297.597 356.008,297.631 355.782,297.564C355.556,297.496 355.252,297.473 354.879,298.026C354.349,298.782 352.622,297.417 352.318,297.157C352.013,296.898 351.539,296.446 351.618,295.871C351.697,295.295 351.686,295.318 351.618,294.99C351.55,294.807 351.519,294.611 351.528,294.415C351.742,293.287 352.792,294.144 353.017,292.508C352.803,290.646 351.336,291.188 350.828,291.639C350.32,292.091 350.298,292.497 350.828,293.151C351.359,293.806 351.381,293.952 351.2,294.28C351.02,294.607 350.997,294.438 350.986,294.946C350.783,296.198 349.993,296.401 349.993,296.401C349.281,296.495 348.556,296.414 347.883,296.164C347.289,295.885 346.868,295.332 346.754,294.686C346.562,294.009 346.754,293.749 345.852,293.354C344.949,292.959 344.599,293.761 345.017,294.11C345.434,294.46 345.649,294.201 345.705,294.9C345.761,295.6 345.818,295.487 346.111,295.972C346.405,296.458 345.649,296.604 344.983,296.728C344.424,296.9 343.926,297.23 343.55,297.676C343.232,297.96 342.841,298.147 342.421,298.218C342.059,298.26 341.71,298.375 341.394,298.557C341.044,298.76 340.266,298.41 339.95,297.913C339.595,297.497 339.198,297.119 338.765,296.785C338.02,296.018 338.765,295.713 338.235,295.16C337.32,294.539 336.722,295.645 336.835,296.153C336.948,296.661 337.456,296.593 337.558,296.954C337.659,297.315 337.264,297.417 337.558,297.834C337.851,298.252 337.964,298.218 339.34,298.805C340.717,299.392 339.984,300.588 339.735,301.152C339.487,301.716 339.487,301.863 338.81,301.897C338.175,301.91 337.55,301.734 337.016,301.389C336.587,301.118 335.887,301.186 336.034,301.705C336.181,302.224 336.824,302.168 337.332,302.202C337.884,302.269 338.421,302.425 338.923,302.664C339.521,302.901 339.058,303.793 338.979,304.3C338.9,304.808 337.851,305.034 336.644,304.808C335.436,304.583 335.142,304.876 335.12,305.214C335.097,305.553 335.267,305.655 337.377,305.35C339.487,305.045 339.216,306.76 339.42,307.731C339.498,308.102 339.54,308.48 339.544,308.859C339.504,309.267 339.262,309.627 338.9,309.819C338.731,309.875 337.975,309.615 337.648,309.672C337.413,309.713 337.172,309.713 336.937,309.672C336.418,309.672 336.373,309.672 336.011,309.819C335.839,309.94 335.635,310.01 335.425,310.022C334.968,310.011 334.517,310.12 334.116,310.338C333.844,310.535 333.474,310.535 333.202,310.338C332.434,310.089 332.073,310.653 332.558,311.297C332.829,311.522 332.976,311.838 333.518,311.624C334.026,311.423 334.498,311.141 334.917,310.789C335.605,310.281 335.932,310.405 336.79,310.439C337.428,310.367 338.071,310.532 338.596,310.902C339.6,311.455 339.036,311.466 338.81,311.624C338.584,311.782 338.449,312.008 338.573,312.651C338.697,313.294 339.42,313.317 340.164,312.899C340.909,312.482 341.123,313.543 341.169,313.926C341.194,314.612 341.569,315.239 342.162,315.585C343.019,316.081 344.656,315.314 345.603,315.1C346.329,314.851 347.136,315.144 347.533,315.799C347.894,316.398 347.33,316.815 347.533,317.774C347.736,318.733 347.533,319.162 347.95,320.2C348.166,320.737 348.496,320.824 348.81,320.717C348.72,320.766 348.639,320.832 348.571,320.911C348.239,321.321 348.279,321.925 348.662,322.288C349.112,322.614 349.739,322.561 350.128,322.164C350.501,321.724 350.23,321.284 349.801,320.889L349.767,320.889M337.253,318.609C337.241,318.521 337.235,318.433 337.235,318.344C337.235,317.242 338.142,316.335 339.244,316.335C340.293,316.335 341.174,317.157 341.247,318.203C341.287,318.542 341.268,318.886 341.191,319.218C341.078,319.749 340.492,320.347 339.363,320.505C338.284,320.505 337.368,319.682 337.253,318.609M358.547,315.653C359.111,315.653 359.675,315.788 359.675,316.352C359.638,316.909 359.193,317.358 358.637,317.402C358.097,317.417 357.629,317.013 357.565,316.476C357.551,316.26 357.629,316.047 357.779,315.89C358.028,315.653 358.186,315.653 358.479,315.653L358.547,315.653M367.608,309.615C367.315,309.316 366.869,309.222 366.48,309.378C366.062,309.467 365.713,309.754 365.543,310.146C365.43,310.439 365.543,311.274 367.383,310.778C367.935,310.642 367.935,309.999 367.563,309.649L367.608,309.615M363.794,307.686L363.783,307.686C363.512,307.686 363.422,307.686 363.253,307.9C363.102,308.109 363.034,308.366 363.061,308.622C363.072,309.08 363.438,309.457 363.896,309.48C364.9,309.48 364.945,307.686 363.794,307.686M366.863,305.338C366.867,305.32 367.081,304.276 366.153,304.007C365.543,303.838 364.584,304.199 364.584,304.921C364.584,305.643 366.637,306.331 366.841,305.338L366.863,305.338M332.75,305.429C333.115,305.603 333.546,305.569 333.879,305.338C334.533,304.797 333.777,304.345 333.506,304.21C333.236,304.075 332.322,304.21 332.175,304.639C332.028,305.068 332.513,305.282 332.784,305.395L332.75,305.429M333.608,301.457C334.07,301.276 334.353,300.892 333.901,300.407C333.45,299.922 333.348,299.99 332.908,300.091C331.125,300.599 332.682,301.716 333.608,301.457M357.588,299.222C356.956,299.425 357.87,300.351 358.298,300.114C359.134,299.595 358.298,298.985 357.588,299.222M362.056,299.279C363.523,299.279 363.343,296.514 361.932,297.394C361.063,297.936 360.623,299.279 362.056,299.279M358.028,294.584C358.498,294.698 358.994,294.642 359.427,294.427C359.833,294.144 359.574,293.614 359.856,293.422C360.29,293.194 360.496,292.68 360.341,292.215C360.1,291.775 359.745,291.409 359.314,291.154C358.928,290.77 358.326,290.695 357.858,290.973C357.137,291.482 356.761,292.356 356.888,293.23C357.014,293.849 357.436,294.369 358.016,294.618L358.028,294.584M342.794,291.887C343.595,292 344.035,290.68 343.29,290.07C342.545,289.461 341.383,291.616 342.794,291.887M345.355,290.195C346.371,290.319 346.551,288.874 345.739,288.457C344.689,287.927 344.159,289.924 345.355,290.195" style="fill:white;"/>
        </g>
    </g>
</svg>
