<?xml version="1.0" encoding="UTF-8" standalone="no"?>
<!DOCTYPE svg PUBLIC "-//W3C//DTD SVG 1.1//EN" "http://www.w3.org/Graphics/SVG/1.1/DTD/svg11.dtd">
<svg width="100%" height="100%" viewBox="0 0 96 96" version="1.1" xmlns="http://www.w3.org/2000/svg" xmlns:xlink="http://www.w3.org/1999/xlink" xml:space="preserve" xmlns:serif="http://www.serif.com/" style="fill-rule:evenodd;clip-rule:evenodd;stroke-linejoin:round;stroke-miterlimit:2;">
    <g id="MayaClassic">
        <g transform="matrix(1.40761,0,0,1.40761,1.50275,-0.101506)">
            <path d="M-1.068,34.172C-1.068,59.082 7.332,68.273 33.033,68.273C58.734,68.273 67.133,58.906 67.133,34.172C67.133,9.439 58.646,0.072 33.033,0.072C7.419,0.072 -1.068,9.263 -1.068,34.172Z" style="fill:rgb(0,183,183);"/>
        </g>
        <g transform="matrix(0.141413,0,0,0.141413,20.7714,13.3312)">
            <path d="M37.222,40.222C102.618,75.816 158.826,124.211 172.75,192.5C152.937,164.357 128.081,136.941 105,132.5C64.386,168.632 57.133,233.285 59.75,280.25C85.027,272.161 109.212,262.277 125,250C124.493,286.31 85.942,318.906 110.5,383.75C136.142,451.457 250.573,476.872 283,415C265.561,401.258 235.758,396.753 217.75,399.75C227.902,408.067 237.218,416.627 242,427.5C188.759,441.542 165.777,411.031 176,370C185.153,333.265 238.577,311.208 266,337.5C290.413,360.906 306.277,406.742 323,430C348.734,371.136 354.677,298.551 340,242C326.958,191.75 278.171,123.046 226.25,90.5C175.463,58.665 108.519,38.219 37.222,40.222ZM108.3,60.7C171.964,107.523 197.604,180.551 172.11,226.405C153.83,198.494 134.214,175.657 112.191,157.282C94.707,184.03 84.669,214.189 82.167,247.8C101.107,241.529 119.379,233.295 136.895,222.836C151.671,247.58 144.6,271.013 134.28,298.633C123.421,327.698 119.861,377.41 152.404,409.141C137.677,334.385 165.424,306.77 186.325,265.087C204.511,228.82 207.335,182.474 189.217,138.6C218.327,153.405 253.971,220.144 189.217,311.213C246.385,259.518 277.346,275.312 313.536,359.618C327.107,291.73 311.378,222.938 274.993,168.098C235.114,107.993 181.625,76.912 108.3,60.7ZM186.342,98.525C242.369,132.711 286.737,185.672 305.092,280.525L307.092,309.525L290.842,280.525C275.627,210.232 239.729,157.116 186.342,118.525L172.842,98.525L186.342,98.525ZM96.55,230.233L114.217,186.233L132.05,200.4L96.55,230.233Z" style="fill:white;"/>
        </g>
    </g>
</svg>
