<?xml version="1.0" encoding="utf-8"?>
<!-- Generator: Adobe Illustrator 19.0.0, SVG Export Plug-In . SVG Version: 6.00 Build 0)  -->
<svg version="1.1" id="Layer_1" xmlns="http://www.w3.org/2000/svg" xmlns:xlink="http://www.w3.org/1999/xlink" x="0px" y="0px"
	 viewBox="-463 -156 512 512" style="enable-background:new -463 -156 512 512;" xml:space="preserve">
<style type="text/css">
	.st0{fill:#4D5A68;}
	.st1{fill:#304653;}
	.st2{fill:#FFCA42;}
	.st3{fill:#FFAF3E;}
	.st4{fill:#CAD4E4;}
	.st5{fill:#ADB5CC;}
	.st6{fill:#DD864D;}
	.st7{fill:#E9336D;}
	.st8{fill:#B12E65;}
	.st9{fill:#D36836;}
</style>
<g>
	<path class="st0" d="M-71-80v45l-30,30h-332l-30-30v-45c0-24.9,20.1-46,45-46h302C-91.1-126-71-104.9-71-80z"/>
	<path class="st1" d="M-71-80v45l-30,30h-166v-121h151C-91.1-126-71-104.9-71-80z"/>
	<path class="st2" d="M-71-35v345c0,24.9-20.1,46-45,46h-302c-24.9,0-45-21.1-45-46V-35H-71z"/>
	<path class="st3" d="M-71-35v345c0,24.9-20.1,46-45,46h-151V-35H-71z"/>
	<path class="st4" d="M-388-65c-8.3,0-15-6.7-15-15v-61c0-8.3,6.7-15,15-15s15,6.7,15,15v61C-373-71.7-379.7-65-388-65z"/>
	<path class="st4" d="M-327-65c-8.3,0-15-6.7-15-15v-61c0-8.3,6.7-15,15-15s15,6.7,15,15v61C-312-71.7-318.7-65-327-65z"/>
	<path class="st4" d="M-252-141v61c0,8.4-6.6,15-15,15s-15-6.6-15-15v-61c0-8.4,6.6-15,15-15S-252-149.4-252-141z"/>
	<path class="st5" d="M-206-65c-8.3,0-15-6.7-15-15v-61c0-8.3,6.7-15,15-15c8.3,0,15,6.7,15,15v61C-191-71.7-197.7-65-206-65z"/>
	<path class="st5" d="M-146-65c-8.3,0-15-6.7-15-15v-61c0-8.3,6.7-15,15-15s15,6.7,15,15v61C-131-71.7-137.7-65-146-65z"/>
	<path class="st6" d="M-252,250c0,8.4-6.6,15-15,15h-121c-8.4,0-15-6.6-15-15c0-8.4,6.6-15,15-15h121C-258.6,235-252,241.6-252,250z
		"/>
	<path class="st6" d="M-297,175h-91c-8.3,0-15-6.7-15-15s6.7-15,15-15h91c8.3,0,15,6.7,15,15S-288.7,175-297,175z"/>
	<path class="st6" d="M-327,85h-61c-8.3,0-15-6.7-15-15s6.7-15,15-15h61c8.3,0,15,6.7,15,15S-318.7,85-327,85z"/>
	<g>
		<g>
			<path class="st1" d="M-53.1,168.2C-48,83.5,11,35.2,14.4,30.4c6.8-7,5.2-18.5-3.3-23.4L-7.6-3.8C-14.7-8-17.2-17.1-13-24.3
				c4.1-7.2,13.3-9.6,20.5-5.5L26.1-19C51.5-4.4,56.3,30.2,36,51.2C31.1,58-18.7,95.3-23.1,170c-0.5,8.3-7.6,14.6-15.9,14.1
				C-47.3,183.5-53.5,176.4-53.1,168.2z"/>
		</g>
		<path class="st0" d="M42.9-61.3l-22.5,39l-38.9,12.2l-30.1-17.4l-8.9-39.8l22.5-39c12.5-21.6,39.9-28.9,61.5-16.5
			S55.4-82.8,42.9-61.3z"/>
		<path class="st1" d="M-18.5-10.1l-15.1-8.7l60-103.9C48-110.3,55.4-82.8,42.9-61.3l-22.5,39L-18.5-10.1z"/>
		<path class="st7" d="M-120.5,224.7l-80.5-46.5c4.3-44,20.2-85.3,47.5-120.1c4.6-5.6,85.3-108.7,89.1-113.5l6.9-11.9l77.9,45
			l-6.8,11.7c-0.5,0.8-52,129.7-53.9,134.1C-56.6,164.6-84.5,199.1-120.5,224.7z"/>
		<path class="st8" d="M-120.5,224.7l-40.3-23.3L-18.5-44.8l39,22.5l-6.8,11.7c-0.5,0.8-52,129.7-53.9,134.1
			C-56.6,164.6-84.5,199.1-120.5,224.7z"/>
		<path class="st4" d="M-144.2,172.9c-16.1-9.3-35.5-8.7-51.2,1.6l-5.6,3.7c-0.2,2.7-0.8,5.1-1,7.7l-3.8,63.6l-13.2,22.9
			c-4.2,7.3-1.8,16.3,5.5,20.5c7.3,4.2,16.3,1.8,20.5-5.5l13.2-22.9l53.2-35.1c2.2-1.5,4-3.3,6.2-4.7l0.4-6.7
			C-118.9,199.3-128.1,182.2-144.2,172.9z"/>
		<path class="st5" d="M-144.2,172.9l-39.3,68.1l0,0l-30,52c7.3,4.2,16.3,1.8,20.5-5.5l13.2-22.9l53.2-35.1c2.2-1.5,4-3.3,6.2-4.7
			l0.4-6.7C-118.9,199.3-128.1,182.2-144.2,172.9z"/>
	</g>
	<path class="st5" d="M-267-65v-91c8.4,0,15,6.6,15,15v61C-252-71.6-258.6-65-267-65z"/>
	<path class="st9" d="M-252,250c0,8.4-6.6,15-15,15v-30C-258.6,235-252,241.6-252,250z"/>
</g>
</svg>
