<?xml version="1.0" encoding="UTF-8" standalone="no"?>
<!DOCTYPE svg PUBLIC "-//W3C//DTD SVG 1.1//EN" "http://www.w3.org/Graphics/SVG/1.1/DTD/svg11.dtd">
<svg width="100%" height="100%" viewBox="0 0 96 96" version="1.1" xmlns="http://www.w3.org/2000/svg" xmlns:xlink="http://www.w3.org/1999/xlink" xml:space="preserve" xmlns:serif="http://www.serif.com/" style="fill-rule:evenodd;clip-rule:evenodd;stroke-linejoin:round;stroke-miterlimit:2;">
    <g id="Nuke">
        <g transform="matrix(1.40761,0,0,1.40761,1.50275,-0.101506)">
            <path d="M-1.068,34.172C-1.068,59.082 7.332,68.273 33.033,68.273C58.734,68.273 67.133,58.906 67.133,34.172C67.133,9.439 58.646,0.072 33.033,0.072C7.419,0.072 -1.068,9.263 -1.068,34.172Z" style="fill:rgb(252,180,52);"/>
        </g>
        <g transform="matrix(1.36671,0,0,1.36677,18.5167,18.3691)">
            <path d="M22.071,2.66C11.566,2.385 2.828,10.678 2.554,21.182C2.277,31.686 10.57,40.424 21.074,40.699C31.579,40.974 40.318,32.683 40.591,22.177C40.868,11.672 32.575,2.934 22.071,2.66M22.129,0.469C33.843,0.776 43.089,10.52 42.784,22.235C42.477,33.949 32.731,43.196 21.016,42.89C9.302,42.583 0.054,32.838 0.361,21.124C0.668,9.41 10.414,0.162 22.129,0.469M34.11,9.729C36.875,12.628 37.839,15.791 37.839,15.791C37.839,15.791 38.389,17.309 36.658,17.309C35.237,17.309 32.42,17.335 32.42,17.335C32.42,17.335 31.076,17.231 31.001,18.37C30.907,19.802 30.944,21.001 30.944,21.001C30.944,21.001 30.986,22.288 31.819,23.269L36.19,27.875C36.19,27.875 37.328,28.796 36.402,30.379C35.261,32.33 32.272,36.481 26.464,38.202C25.173,38.586 25.059,37.539 25.102,36.833C25.131,36.38 25.626,26.226 25.626,26.226C25.626,26.226 25.952,24.55 24.67,23.198C23.296,21.748 22.442,20.799 22.442,20.799C22.442,20.799 21.469,19.825 20.094,18.375C18.812,17.025 17.121,17.261 17.121,17.261C17.121,17.261 6.954,17.224 6.5,17.231C5.792,17.237 4.754,17.068 5.203,15.799C7.228,10.089 11.528,7.323 13.537,6.283C15.167,5.442 16.027,6.627 16.027,6.627L20.397,11.233C21.334,12.117 22.616,12.224 22.616,12.224C22.616,12.224 23.812,12.326 25.247,12.306C26.388,12.29 26.354,10.945 26.354,10.945C26.354,10.945 26.528,8.133 26.602,6.712C26.692,4.984 28.18,5.613 28.18,5.613C28.18,5.613 31.36,6.816 34.11,9.729ZM23.531,14.83C22.69,15.627 23.021,17.43 24.324,18.804C25.628,20.18 27.412,20.604 28.252,19.807C29.093,19.01 28.796,17.173 27.492,15.799C26.189,14.425 24.369,14.034 23.531,14.83Z" style="fill:white;"/>
        </g>
    </g>
</svg>
