<?xml version="1.0" encoding="UTF-8" standalone="no"?>
<!DOCTYPE svg PUBLIC "-//W3C//DTD SVG 1.1//EN" "http://www.w3.org/Graphics/SVG/1.1/DTD/svg11.dtd">
<svg width="100%" height="100%" viewBox="0 0 96 96" version="1.1" xmlns="http://www.w3.org/2000/svg" xmlns:xlink="http://www.w3.org/1999/xlink" xml:space="preserve" xmlns:serif="http://www.serif.com/" style="fill-rule:evenodd;clip-rule:evenodd;stroke-linejoin:round;stroke-miterlimit:2;">
    <g id="Shotgun">
        <g transform="matrix(1.40761,0,0,1.40761,1.50275,-0.101506)">
            <path d="M-1.068,34.172C-1.068,59.082 7.332,68.273 33.033,68.273C58.734,68.273 67.133,58.906 67.133,34.172C67.133,9.439 58.646,0.072 33.033,0.072C7.419,0.072 -1.068,9.263 -1.068,34.172Z" style="fill:rgb(33,150,243);"/>
        </g>
        <g transform="matrix(0.543657,0,0,0.543657,13.2744,13.2878)">
            <path d="M100.652,57.705L100.652,48.173C100.652,48.173 98.937,47.636 97.642,47.163C94.428,46.003 88.547,45.041 86.104,45.157C75.504,45.661 69.369,51.433 67.04,55.692C63.026,63.03 64.217,71.008 67.04,76.26C69.199,80.277 71.825,82.822 76.07,84.789C81.051,87.092 88.157,87.853 94.382,86.607C96.576,86.168 100.653,84.287 100.653,84.287L100.653,67.237L90.054,67.174L90.117,77.773C87.944,77.875 85.772,77.555 83.72,76.833C79.508,75.294 76.376,70.562 76.321,67.243C76.005,48.738 100.652,57.705 100.652,57.705Z" style="fill:white;fill-rule:nonzero;"/>
            <path d="M20.318,75.138C20.318,75.138 21.636,81.849 27.406,84.797C31.045,86.655 40.025,87.416 45.968,86.803C54.622,85.91 60.628,81.642 61.018,74.26C61.403,66.981 56.556,63.746 51.486,62.22C47.718,61.084 34.956,61.794 35.244,57.077C35.496,52.787 42.54,53.255 44.273,54.883C45.163,55.71 45.795,56.778 46.092,57.956L59.512,56.199C59.512,56.199 57.379,51.12 54.306,48.674C52.624,47.335 48.044,46.371 45.966,46.165C40.75,45.65 32.999,46.165 29.41,47.67C23.858,49.991 22.947,54.017 22.888,54.193C21.097,59.522 23.801,65.011 26.397,66.736C26.811,67.011 27.066,67.534 27.406,67.745C31.77,70.408 48.015,69.971 47.974,75.271C47.95,78.453 42.131,79.387 41.452,79.285C36.059,78.47 35.056,74.017 35.056,74.017L20.318,75.138Z" style="fill:white;fill-rule:nonzero;"/>
            <path d="M64.218,10.509L64.562,10.512L64.906,10.517L65.249,10.525L65.591,10.535L65.933,10.547L66.275,10.561L66.616,10.577L66.956,10.595L67.296,10.616L67.635,10.638L67.974,10.663L68.312,10.69L68.649,10.719L68.986,10.75L69.323,10.783L69.658,10.818L69.994,10.856L70.328,10.895L70.662,10.936L70.995,10.98L71.328,11.025L71.66,11.073L71.991,11.122L72.322,11.174L72.652,11.228L72.981,11.284L73.31,11.341L73.638,11.401L73.965,11.463L74.291,11.526L74.617,11.592L74.942,11.66L75.267,11.729L75.59,11.801L75.913,11.874L76.236,11.95L76.557,12.027L76.878,12.107L77.198,12.188L77.517,12.271L77.835,12.357L78.153,12.444L78.47,12.533L78.786,12.624L79.101,12.716L79.415,12.811L79.729,12.908L80.042,13.006L80.354,13.106L80.665,13.209L80.975,13.313L81.284,13.418L81.593,13.526L81.901,13.636L82.207,13.747L82.513,13.86L82.819,13.975L83.123,14.092L83.426,14.211L83.728,14.331L84.03,14.453L84.33,14.577L84.63,14.703L84.929,14.83L85.226,14.96L85.523,15.091L85.819,15.224L86.114,15.358L86.408,15.494L86.701,15.632L86.993,15.772L87.284,15.913L87.574,16.056L87.863,16.201L88.151,16.348L88.438,16.496L88.724,16.646L89.009,16.797L89.293,16.951L89.576,17.106L89.858,17.262L90.139,17.42L90.418,17.58L90.697,17.742L90.975,17.905L91.251,18.069L91.527,18.236L91.801,18.404L92.075,18.573L92.347,18.744L92.618,18.917L92.888,19.091L93.157,19.267L93.425,19.445L93.691,19.624L93.957,19.804L94.221,19.986L94.484,20.17L94.746,20.355L95.007,20.542L95.267,20.73L95.525,20.92L95.782,21.111L96.039,21.304L96.293,21.498L96.547,21.694L96.8,21.891L97.051,22.09L97.301,22.29L97.55,22.492L97.797,22.695L98.044,22.9L98.289,23.106L98.533,23.313L98.775,23.522L99.017,23.732L99.257,23.944L99.495,24.157L99.733,24.372L99.969,24.588L100.204,24.805L100.437,25.024L100.67,25.244L100.901,25.466L101.13,25.688L101.359,25.913L101.585,26.138L101.811,26.365L102.035,26.593L102.258,26.823L102.48,27.054L102.7,27.286L102.918,27.52L103.136,27.755L103.352,27.991L103.566,28.228L103.779,28.467L103.991,28.707L104.201,28.948L104.41,29.191L104.618,29.435L104.824,29.68L105.028,29.926L105.232,30.174L105.433,30.423L105.633,30.673L105.832,30.924L106.029,31.176L106.225,31.43L106.42,31.685L106.612,31.941L106.804,32.199L106.993,32.457L107.182,32.717L107.368,32.978L107.554,33.24L107.737,33.503L107.919,33.767L108.1,34.033L108.279,34.299L108.456,34.567L108.632,34.836L108.807,35.106L108.979,35.377L109.15,35.649L109.32,35.922L109.488,36.197L109.654,36.472L109.819,36.749L109.982,37.026L110.144,37.305L110.303,37.585L110.462,37.866L110.618,38.148L110.773,38.431L110.926,38.715L111.078,39L111.228,39.286L111.376,39.573L111.522,39.861L111.667,40.15L111.81,40.44L111.952,40.731L112.091,41.023L112.229,41.316L112.366,41.61L112.5,41.905L112.633,42.2L112.764,42.497L112.893,42.795L113.021,43.094L113.146,43.393L113.27,43.694L113.393,43.995L113.513,44.298L113.632,44.601L113.748,44.905L113.863,45.21L113.977,45.516L114.088,45.823L114.197,46.131L114.305,46.439L114.411,46.749L114.515,47.059L114.617,47.37L114.718,47.682L114.816,47.995L114.913,48.308L115.007,48.623L115.1,48.938L115.191,49.254L115.28,49.571L115.367,49.888L115.452,50.207L115.535,50.526L115.617,50.846L115.696,51.167L115.774,51.488L115.849,51.81L115.923,52.133L115.994,52.457L116.064,52.781L116.132,53.106L116.197,53.432L116.261,53.759L116.323,54.086L116.382,54.414L116.44,54.743L116.496,55.072L116.55,55.402L116.601,55.733L116.651,56.064L116.698,56.396L116.744,56.728L116.787,57.062L116.829,57.396L116.868,57.73L116.905,58.065L116.941,58.401L116.974,58.737L117.005,59.074L117.034,59.412L117.061,59.75L117.085,60.088L117.108,60.428L117.128,60.768L117.147,61.108L117.163,61.449L117.177,61.79L117.189,62.132L117.199,62.475L117.206,62.818L117.212,63.161L117.215,63.505L117.216,63.85L117.215,64.194L117.212,64.538L117.206,64.882L117.199,65.225L117.189,65.567L117.177,65.909L117.163,66.251L117.147,66.592L117.128,66.932L117.108,67.272L117.085,67.611L117.061,67.95L117.034,68.288L117.005,68.625L116.974,68.962L116.941,69.299L116.905,69.634L116.868,69.97L116.829,70.304L116.787,70.638L116.744,70.971L116.698,71.304L116.651,71.636L116.601,71.967L116.55,72.298L116.496,72.628L116.44,72.957L116.382,73.286L116.323,73.614L116.261,73.941L116.197,74.267L116.132,74.593L116.064,74.918L115.994,75.243L115.923,75.566L115.849,75.889L115.774,76.212L115.696,76.533L115.617,76.854L115.535,77.174L115.452,77.493L115.367,77.811L115.28,78.129L115.191,78.446L115.1,78.762L115.007,79.077L114.913,79.391L114.816,79.705L114.718,80.018L114.617,80.33L114.515,80.641L114.411,80.951L114.305,81.26L114.197,81.569L114.088,81.877L113.977,82.184L113.863,82.489L113.748,82.795L113.632,83.099L113.513,83.402L113.393,83.704L113.27,84.006L113.146,84.306L113.021,84.606L112.893,84.905L112.764,85.202L112.633,85.499L112.5,85.795L112.366,86.09L112.229,86.384L112.091,86.677L111.952,86.969L111.81,87.26L111.667,87.55L111.522,87.839L111.376,88.127L111.228,88.414L111.078,88.7L110.926,88.985L110.773,89.269L110.618,89.552L110.462,89.834L110.303,90.115L110.144,90.395L109.982,90.673L109.819,90.951L109.654,91.227L109.488,91.503L109.32,91.777L109.15,92.051L108.979,92.323L108.807,92.594L108.632,92.864L108.456,93.133L108.279,93.401L108.1,93.667L107.919,93.933L107.737,94.197L107.554,94.46L107.368,94.722L107.182,94.983L106.993,95.243L106.804,95.501L106.42,96.015L106.225,96.27L106.029,96.523L105.832,96.776L105.633,97.027L105.433,97.277L105.232,97.526L104.824,98.02L104.618,98.265L104.41,98.509L104.201,98.751L103.991,98.993L103.779,99.233L103.566,99.471L103.352,99.709L103.136,99.945L102.918,100.18L102.7,100.414L102.48,100.646L102.258,100.877L102.035,101.106L101.811,101.335L101.359,101.787L101.13,102.011L100.901,102.234L100.67,102.456L100.437,102.676L100.204,102.894L99.969,103.112L99.733,103.328L99.495,103.542L99.257,103.755L99.017,103.967L98.775,104.178L98.533,104.386L98.289,104.594L98.044,104.8L97.55,105.208L97.301,105.409L97.051,105.61L96.8,105.808L96.547,106.005L96.293,106.201L96.039,106.396L95.525,106.78L95.267,106.969L95.007,107.158L94.746,107.344L94.484,107.53L94.221,107.713L93.957,107.895L93.691,108.076L93.425,108.255L93.157,108.432L92.888,108.608L92.618,108.783L92.347,108.955L92.075,109.126L91.801,109.296L91.527,109.464L91.251,109.63L90.975,109.795L90.697,109.958L90.418,110.12L90.139,110.279L89.858,110.438L89.576,110.594L89.293,110.749L89.009,110.902L88.724,111.054L88.438,111.204L88.151,111.352L87.863,111.498L87.574,111.643L87.284,111.786L86.993,111.928L86.701,112.067L86.408,112.205L86.114,112.342L85.819,112.476L85.523,112.609L85.226,112.74L84.929,112.869L84.63,112.997L84.33,113.122L84.03,113.246L83.728,113.369L83.426,113.489L83.123,113.608L82.819,113.724L82.513,113.839L82.208,113.953L81.901,114.064L81.593,114.174L81.284,114.281L80.975,114.387L80.665,114.491L80.354,114.593L80.042,114.694L79.729,114.792L79.415,114.889L79.101,114.983L78.786,115.076L78.47,115.167L78.153,115.256L77.835,115.343L77.517,115.428L77.198,115.511L76.878,115.593L76.557,115.672L76.236,115.75L75.913,115.825L75.59,115.899L75.267,115.97L74.942,116.04L74.617,116.108L74.291,116.173L73.965,116.237L73.638,116.299L73.31,116.358L72.981,116.416L72.652,116.472L72.322,116.526L71.991,116.577L71.66,116.627L71.328,116.674L70.995,116.72L70.662,116.763L70.328,116.805L69.994,116.844L69.658,116.881L69.323,116.917L68.986,116.95L68.649,116.981L68.312,117.01L67.974,117.037L67.635,117.061L67.296,117.084L66.956,117.104L66.616,117.123L66.275,117.139L65.933,117.153L65.591,117.165L65.249,117.175L64.906,117.182L64.562,117.188L64.218,117.191L63.874,117.192L63.529,117.191L63.185,117.188L62.842,117.182L62.499,117.175L62.156,117.165L61.814,117.153L61.473,117.139L61.132,117.123L60.791,117.104L60.452,117.084L60.112,117.061L59.774,117.037L59.436,117.01L59.098,116.981L58.761,116.95L58.425,116.917L58.089,116.881L57.754,116.844L57.42,116.805L57.086,116.763L56.752,116.72L56.42,116.674L56.088,116.627L55.757,116.577L55.426,116.526L55.096,116.472L54.767,116.416L54.438,116.358L54.11,116.299L53.783,116.237L53.456,116.173L53.13,116.108L52.805,116.04L52.481,115.97L52.157,115.899L51.834,115.825L51.512,115.75L51.191,115.672L50.87,115.593L50.55,115.511L50.231,115.428L49.912,115.343L49.595,115.256L49.278,115.167L48.962,115.076L48.647,114.983L48.332,114.889L48.019,114.792L47.706,114.694L47.394,114.593L47.083,114.491L46.773,114.387L46.463,114.281L46.155,114.174L45.847,114.064L45.54,113.953L45.234,113.839L44.929,113.724L44.625,113.608L44.322,113.489L44.019,113.369L43.718,113.246L43.417,113.122L43.118,112.997L42.819,112.869L42.521,112.74L42.224,112.609L41.929,112.476L41.634,112.342L41.34,112.205L41.047,112.067L40.755,111.928L40.464,111.786L40.174,111.643L39.885,111.498L39.597,111.352L39.309,111.204L39.023,111.054L38.739,110.902L38.455,110.749L38.172,110.594L37.89,110.438L37.609,110.279L37.329,110.12L37.05,109.958L36.773,109.795L36.496,109.63L36.221,109.464L35.946,109.296L35.673,109.126L35.401,108.955L35.13,108.783L34.86,108.608L34.591,108.432L34.323,108.255L34.056,108.076L33.791,107.895L33.527,107.713L33.264,107.53L33.002,107.344L32.741,107.158L32.481,106.969L32.223,106.78L31.965,106.588L31.709,106.396L31.454,106.201L31.2,106.006L30.948,105.808L30.697,105.61L30.447,105.409L30.198,105.208L29.95,105.004L29.704,104.8L29.459,104.594L29.215,104.386L28.972,104.178L28.731,103.967L28.491,103.755L28.252,103.542L28.015,103.328L27.779,103.112L27.544,102.894L27.31,102.676L27.078,102.456L26.847,102.234L26.617,102.011L26.389,101.787L26.162,101.561L25.937,101.335L25.712,101.106L25.49,100.877L25.268,100.646L25.048,100.414L24.829,100.18L24.612,99.945L24.396,99.709L24.181,99.471L23.968,99.233L23.756,98.993L23.546,98.751L23.337,98.509L23.13,98.265L22.924,98.02L22.719,97.773L22.516,97.526L22.314,97.277L22.114,97.027L21.915,96.776L21.718,96.523L21.522,96.269L21.328,96.015L21.135,95.758L20.944,95.501L20.754,95.243L20.566,94.983L20.379,94.722L20.194,94.46L20.01,94.197L19.828,93.933L19.648,93.667L19.469,93.401L19.291,93.133L19.115,92.864L18.941,92.594L18.768,92.323L18.597,92.051L18.428,91.777L18.26,91.503L18.093,91.227L17.929,90.951L17.766,90.673L17.604,90.395L17.444,90.115L17.286,89.834L17.13,89.552L16.975,89.269L16.821,88.985L16.67,88.7L16.52,88.414L16.372,88.127L16.225,87.839L16.08,87.55L15.937,87.26L15.796,86.969L15.656,86.677L15.518,86.384L15.382,86.09L15.247,85.795L15.115,85.499L14.984,85.202L14.854,84.905L14.727,84.606L14.601,84.306L14.477,84.006L14.355,83.704L14.235,83.402L14.116,83.099L13.999,82.795L13.884,82.489L13.771,82.184L13.66,81.877L13.55,81.569L13.442,81.26L13.337,80.951L13.233,80.641L13.13,80.33L13.03,80.018L12.932,79.705L12.835,79.391L12.74,79.077L12.648,78.762L12.557,78.446L12.468,78.129L12.381,77.811L12.295,77.493L12.212,77.174L12.131,76.854L12.051,76.533L11.974,76.212L11.898,75.889L11.825,75.566L11.753,75.243L11.684,74.918L11.616,74.593L11.55,74.267L11.487,73.941L11.425,73.614L11.365,73.286L11.307,72.957L11.252,72.628L11.198,72.298L11.146,71.967L11.097,71.636L11.049,71.304L11.004,70.971L10.96,70.638L10.919,70.304L10.879,69.97L10.842,69.634L10.807,69.299L10.774,68.962L10.743,68.625L10.714,68.288L10.687,67.95L10.662,67.611L10.64,67.272L10.619,66.932L10.601,66.592L10.585,66.251L10.571,65.909L10.559,65.567L10.549,65.225L10.541,64.882L10.536,64.538L10.533,64.194L10.531,63.85L10.533,63.505L10.536,63.161L10.541,62.818L10.549,62.475L10.559,62.132L10.571,61.79L10.585,61.449L10.601,61.108L10.619,60.768L10.64,60.428L10.662,60.088L10.687,59.75L10.714,59.412L10.743,59.074L10.774,58.737L10.807,58.401L10.842,58.065L10.879,57.73L10.919,57.396L10.96,57.062L11.004,56.728L11.049,56.396L11.097,56.064L11.146,55.733L11.198,55.402L11.252,55.072L11.307,54.743L11.365,54.414L11.425,54.086L11.487,53.759L11.55,53.432L11.616,53.106L11.684,52.781L11.753,52.457L11.825,52.133L11.898,51.81L11.974,51.488L12.051,51.167L12.131,50.846L12.212,50.526L12.295,50.207L12.381,49.888L12.468,49.571L12.557,49.254L12.648,48.938L12.74,48.623L12.835,48.308L12.932,47.995L13.03,47.682L13.13,47.37L13.233,47.059L13.337,46.749L13.442,46.439L13.55,46.131L13.66,45.823L13.771,45.516L13.884,45.21L13.999,44.905L14.116,44.601L14.235,44.298L14.355,43.995L14.477,43.694L14.601,43.393L14.727,43.094L14.854,42.795L14.984,42.497L15.115,42.2L15.247,41.905L15.382,41.61L15.518,41.316L15.656,41.023L15.796,40.731L15.937,40.44L16.08,40.15L16.225,39.861L16.372,39.573L16.52,39.286L16.67,39L16.821,38.715L16.975,38.431L17.13,38.148L17.286,37.866L17.444,37.585L17.604,37.305L17.766,37.026L17.929,36.749L18.093,36.472L18.26,36.197L18.428,35.922L18.597,35.649L18.768,35.377L18.941,35.106L19.115,34.836L19.291,34.567L19.469,34.299L19.648,34.033L19.828,33.767L20.01,33.503L20.194,33.24L20.379,32.978L20.566,32.717L20.754,32.457L20.944,32.199L21.135,31.941L21.328,31.685L21.522,31.43L21.718,31.176L21.915,30.924L22.114,30.673L22.314,30.423L22.516,30.174L22.719,29.926L22.924,29.68L23.13,29.435L23.337,29.191L23.546,28.948L23.756,28.707L23.968,28.467L24.181,28.228L24.396,27.991L24.612,27.755L24.829,27.52L25.048,27.286L25.268,27.054L25.49,26.823L25.712,26.593L25.937,26.365L26.162,26.138L26.389,25.913L26.617,25.688L26.847,25.466L27.078,25.244L27.31,25.024L27.544,24.805L27.779,24.588L28.015,24.372L28.252,24.157L28.491,23.944L28.731,23.732L28.972,23.522L29.215,23.313L29.459,23.106L29.704,22.9L29.95,22.695L30.198,22.492L30.447,22.29L30.697,22.09L30.948,21.891L31.2,21.694L31.454,21.498L31.709,21.304L31.965,21.111L32.223,20.92L32.481,20.73L32.741,20.542L33.002,20.355L33.264,20.17L33.527,19.986L33.791,19.804L34.056,19.624L34.323,19.445L34.591,19.267L34.86,19.091L35.13,18.917L35.401,18.744L35.673,18.573L35.946,18.404L36.221,18.236L36.496,18.069L36.773,17.905L37.05,17.742L37.329,17.58L37.609,17.42L37.89,17.262L38.172,17.106L38.455,16.951L38.739,16.797L39.023,16.646L39.31,16.496L39.597,16.348L39.885,16.201L40.174,16.056L40.464,15.913L40.755,15.772L41.047,15.632L41.34,15.494L41.634,15.358L41.928,15.224L42.224,15.091L42.521,14.96L42.819,14.83L43.118,14.703L43.417,14.577L43.718,14.453L44.019,14.331L44.322,14.211L44.625,14.092L44.929,13.975L45.234,13.86L45.54,13.747L45.847,13.636L46.155,13.526L46.463,13.418L46.773,13.313L47.083,13.209L47.394,13.106L47.706,13.006L48.019,12.908L48.332,12.811L48.647,12.716L48.962,12.624L49.278,12.533L49.595,12.444L49.912,12.357L50.231,12.271L50.55,12.188L50.87,12.107L51.191,12.027L51.512,11.95L51.834,11.874L52.157,11.801L52.481,11.729L52.805,11.66L53.13,11.592L53.456,11.526L53.783,11.463L54.11,11.401L54.438,11.341L54.767,11.284L55.096,11.228L55.426,11.174L55.757,11.122L56.088,11.073L56.42,11.025L56.752,10.98L57.086,10.936L57.42,10.895L57.754,10.856L58.089,10.818L58.425,10.783L58.761,10.75L59.098,10.719L59.436,10.69L59.774,10.663L60.112,10.638L60.452,10.616L60.791,10.595L61.132,10.577L61.473,10.561L61.814,10.547L62.156,10.535L62.499,10.525L62.842,10.517L63.185,10.512L63.529,10.509L63.874,10.507L64.218,10.509ZM63.552,14.042L63.23,14.045L62.909,14.05L62.588,14.057L62.268,14.066L61.949,14.077L61.63,14.09L61.311,14.106L60.993,14.123L60.675,14.142L60.359,14.163L60.042,14.186L59.726,14.211L59.411,14.238L59.096,14.267L58.782,14.298L58.469,14.331L58.156,14.366L57.844,14.403L57.532,14.441L57.221,14.482L56.91,14.524L56.6,14.569L56.291,14.615L55.982,14.663L55.674,14.713L55.367,14.765L55.06,14.819L54.754,14.875L54.448,14.933L54.144,14.992L53.84,15.053L53.536,15.116L53.233,15.181L52.931,15.248L52.63,15.317L52.329,15.387L52.029,15.46L51.73,15.534L51.431,15.61L51.133,15.687L50.836,15.767L50.54,15.848L50.244,15.931L49.949,16.016L49.655,16.103L49.362,16.191L49.069,16.281L48.777,16.373L48.486,16.467L48.196,16.562L47.906,16.659L47.617,16.758L47.329,16.858L47.042,16.961L46.756,17.065L46.47,17.17L46.186,17.278L45.902,17.387L45.619,17.497L45.336,17.61L45.055,17.724L44.774,17.839L44.495,17.957L44.216,18.076L43.938,18.196L43.661,18.319L43.385,18.443L43.11,18.568L42.835,18.695L42.562,18.824L42.289,18.955L42.017,19.087L41.747,19.22L41.477,19.355L41.208,19.492L40.94,19.63L40.673,19.77L40.407,19.912L40.142,20.055L39.878,20.2L39.614,20.346L39.352,20.493L39.091,20.643L38.831,20.793L38.572,20.946L38.313,21.1L38.056,21.255L37.8,21.412L37.545,21.57L37.29,21.73L37.037,21.891L36.785,22.054L36.534,22.218L36.284,22.384L36.035,22.551L35.787,22.72L35.54,22.89L35.294,23.061L35.05,23.234L34.806,23.409L34.563,23.585L34.322,23.762L34.082,23.941L33.842,24.121L33.604,24.302L33.367,24.485L33.131,24.669L32.897,24.855L32.663,25.042L32.431,25.23L32.199,25.42L31.969,25.611L31.74,25.804L31.512,25.997L31.06,26.389L30.836,26.587L30.613,26.786L30.391,26.986L30.171,27.188L29.951,27.391L29.733,27.596L29.516,27.801L29.3,28.008L29.086,28.216L28.873,28.426L28.661,28.637L28.45,28.849L28.24,29.062L28.032,29.276L27.825,29.492L27.62,29.709L27.415,29.927L27.212,30.147L27.01,30.367L26.81,30.589L26.611,30.812L26.413,31.036L26.021,31.488L25.828,31.716L25.635,31.945L25.444,32.175L25.254,32.407L25.066,32.639L24.879,32.873L24.693,33.107L24.509,33.343L24.326,33.58L24.145,33.818L23.965,34.058L23.786,34.298L23.609,34.539L23.433,34.782L23.258,35.026L23.085,35.27L22.914,35.516L22.744,35.763L22.575,36.011L22.408,36.26L22.242,36.51L22.078,36.761L21.915,37.013L21.754,37.266L21.594,37.521L21.436,37.776L21.279,38.032L21.124,38.289L20.97,38.548L20.817,38.807L20.667,39.067L20.517,39.328L20.37,39.59L20.224,39.854L20.079,40.118L19.936,40.383L19.794,40.649L19.654,40.916L19.516,41.184L19.379,41.453L19.244,41.723L19.111,41.993L18.979,42.265L18.848,42.538L18.719,42.811L18.592,43.086L18.467,43.361L18.343,43.637L18.22,43.914L18.1,44.192L17.981,44.471L17.863,44.751L17.748,45.031L17.634,45.312L17.521,45.595L17.41,45.878L17.301,46.162L17.194,46.446L17.089,46.732L16.985,47.018L16.882,47.305L16.782,47.593L16.683,47.882L16.586,48.172L16.491,48.462L16.397,48.753L16.305,49.045L16.215,49.338L16.127,49.631L16.04,49.925L15.955,50.22L15.872,50.516L15.791,50.812L15.711,51.109L15.634,51.407L15.558,51.706L15.484,52.005L15.411,52.305L15.341,52.606L15.272,52.907L15.205,53.209L15.14,53.512L15.077,53.816L15.016,54.12L14.957,54.424L14.899,54.73L14.843,55.036L14.789,55.343L14.737,55.65L14.687,55.958L14.639,56.267L14.593,56.576L14.548,56.886L14.506,57.197L14.465,57.508L14.427,57.82L14.39,58.132L14.355,58.445L14.322,58.758L14.291,59.072L14.262,59.387L14.235,59.702L14.21,60.018L14.187,60.335L14.166,60.652L14.147,60.969L14.13,61.287L14.114,61.606L14.101,61.925L14.09,62.244L14.081,62.564L14.074,62.885L14.069,63.206L14.066,63.528L14.065,63.85L14.066,64.172L14.069,64.494L14.074,64.815L14.081,65.135L14.09,65.455L14.101,65.775L14.114,66.094L14.13,66.413L14.147,66.731L14.166,67.048L14.187,67.365L14.21,67.681L14.235,67.997L14.262,68.313L14.291,68.627L14.322,68.941L14.355,69.255L14.39,69.568L14.427,69.88L14.465,70.192L14.506,70.503L14.548,70.814L14.593,71.123L14.639,71.433L14.687,71.741L14.737,72.049L14.789,72.357L14.843,72.664L14.899,72.97L14.957,73.275L15.016,73.58L15.077,73.884L15.14,74.188L15.205,74.49L15.272,74.792L15.341,75.094L15.411,75.395L15.484,75.695L15.558,75.994L15.634,76.292L15.711,76.59L15.791,76.887L15.872,77.184L15.955,77.48L16.04,77.774L16.127,78.069L16.215,78.362L16.305,78.655L16.397,78.947L16.491,79.238L16.586,79.528L16.683,79.818L16.782,80.106L16.882,80.394L16.985,80.681L17.089,80.968L17.194,81.253L17.301,81.538L17.41,81.822L17.521,82.105L17.634,82.387L17.748,82.669L17.863,82.949L17.981,83.229L18.1,83.508L18.22,83.786L18.343,84.063L18.467,84.339L18.592,84.614L18.719,84.888L18.848,85.162L18.979,85.435L19.111,85.706L19.244,85.977L19.379,86.247L19.516,86.516L19.654,86.784L19.794,87.051L19.936,87.317L20.079,87.582L20.224,87.846L20.37,88.109L20.517,88.371L20.667,88.633L20.817,88.893L20.97,89.152L21.124,89.41L21.279,89.668L21.436,89.924L21.594,90.179L21.754,90.433L21.915,90.686L22.078,90.939L22.242,91.19L22.408,91.44L22.575,91.689L22.744,91.937L22.914,92.184L23.085,92.429L23.258,92.674L23.433,92.918L23.609,93.16L23.786,93.402L23.965,93.642L24.145,93.881L24.326,94.119L24.509,94.356L24.693,94.592L24.879,94.827L25.066,95.061L25.254,95.293L25.444,95.524L25.635,95.754L25.828,95.983L26.021,96.211L26.217,96.438L26.413,96.663L26.611,96.888L26.81,97.111L27.01,97.332L27.212,97.553L27.415,97.772L27.62,97.991L27.825,98.208L28.032,98.423L28.24,98.638L28.45,98.851L28.661,99.063L28.873,99.274L29.086,99.483L29.3,99.692L29.516,99.898L29.733,100.104L29.951,100.308L30.171,100.511L30.391,100.713L30.613,100.914L30.836,101.113L31.06,101.311L31.286,101.507L31.512,101.702L31.74,101.896L31.969,102.089L32.199,102.28L32.663,102.658L32.897,102.845L33.131,103.03L33.367,103.215L33.604,103.398L33.842,103.579L34.082,103.759L34.322,103.938L34.563,104.115L34.806,104.291L35.05,104.465L35.294,104.638L35.54,104.81L35.787,104.98L36.035,105.149L36.284,105.316L36.534,105.481L36.785,105.646L37.037,105.809L37.29,105.97L37.545,106.13L37.8,106.288L38.056,106.445L38.313,106.6L38.572,106.754L38.831,106.906L39.091,107.057L39.352,107.206L39.614,107.354L39.878,107.5L40.142,107.645L40.407,107.788L40.673,107.929L40.94,108.069L41.208,108.208L41.477,108.344L41.747,108.48L42.017,108.613L42.289,108.745L42.562,108.876L42.835,109.004L43.11,109.132L43.385,109.257L43.661,109.381L43.938,109.503L44.216,109.624L44.495,109.743L44.774,109.86L45.055,109.976L45.336,110.09L45.619,110.202L45.902,110.313L46.186,110.422L46.47,110.529L46.756,110.635L47.042,110.739L47.329,110.841L47.617,110.942L47.906,111.041L48.196,111.138L48.486,111.233L48.777,111.327L49.069,111.418L49.362,111.509L49.655,111.597L49.949,111.684L50.244,111.768L50.54,111.851L50.836,111.933L51.133,112.012L51.431,112.09L51.73,112.166L52.029,112.24L52.329,112.312L52.63,112.383L52.931,112.451L53.233,112.518L53.536,112.583L53.84,112.646L54.144,112.708L54.448,112.767L54.754,112.825L55.06,112.88L55.367,112.934L55.674,112.986L55.982,113.036L56.291,113.085L56.6,113.131L56.91,113.175L57.221,113.218L57.532,113.258L57.844,113.297L58.156,113.334L58.469,113.369L58.782,113.402L59.096,113.433L59.411,113.462L59.726,113.489L60.042,113.514L60.359,113.537L60.676,113.558L60.993,113.577L61.311,113.594L61.629,113.609L61.949,113.622L62.268,113.634L62.588,113.643L62.909,113.65L63.23,113.655L63.552,113.658L63.874,113.659L64.196,113.658L64.518,113.655L64.839,113.65L65.159,113.643L65.479,113.634L65.799,113.622L66.118,113.609L66.437,113.594L66.755,113.577L67.072,113.558L67.389,113.537L67.705,113.514L68.021,113.489L68.336,113.462L68.651,113.433L68.965,113.402L69.279,113.369L69.592,113.334L69.904,113.297L70.216,113.258L70.527,113.218L70.838,113.175L71.147,113.131L71.457,113.085L71.765,113.036L72.073,112.986L72.381,112.934L72.688,112.88L72.994,112.825L73.299,112.767L73.604,112.708L73.908,112.646L74.212,112.583L74.514,112.518L74.816,112.451L75.118,112.383L75.419,112.312L75.719,112.24L76.018,112.166L76.316,112.09L76.614,112.012L76.911,111.933L77.208,111.851L77.504,111.768L77.798,111.684L78.093,111.597L78.386,111.509L78.679,111.418L78.971,111.327L79.262,111.233L79.552,111.138L79.842,111.041L80.13,110.942L80.418,110.841L80.705,110.739L80.992,110.635L81.277,110.529L81.562,110.422L81.846,110.313L82.129,110.202L82.411,110.09L82.693,109.976L82.973,109.86L83.253,109.743L83.532,109.624L83.809,109.503L84.087,109.381L84.363,109.257L84.638,109.132L85.186,108.876L85.458,108.745L85.73,108.613L86.001,108.48L86.271,108.344L86.54,108.208L86.808,108.069L87.075,107.929L87.341,107.788L87.606,107.645L87.87,107.5L88.133,107.354L88.395,107.206L88.657,107.057L88.917,106.906L89.176,106.754L89.434,106.6L89.692,106.445L89.948,106.288L90.203,106.13L90.457,105.97L90.71,105.809L90.963,105.646L91.214,105.481L91.464,105.316L91.713,105.149L91.961,104.98L92.208,104.81L92.453,104.638L92.698,104.465L92.942,104.291L93.184,104.115L93.426,103.938L93.666,103.759L93.905,103.579L94.143,103.398L94.38,103.215L94.616,103.03L94.851,102.845L95.085,102.658L95.317,102.469L95.548,102.28L95.778,102.089L96.007,101.896L96.235,101.702L96.462,101.507L96.687,101.311L96.911,101.113L97.135,100.914L97.356,100.713L97.577,100.511L97.796,100.308L98.015,100.104L98.232,99.898L98.447,99.691L98.662,99.483L98.875,99.274L99.087,99.063L99.298,98.851L99.507,98.638L99.715,98.423L99.922,98.208L100.128,97.991L100.332,97.772L100.535,97.553L100.737,97.332L100.938,97.111L101.137,96.888L101.335,96.663L101.531,96.438L101.726,96.211L101.92,95.983L102.112,95.754L102.304,95.524L102.493,95.293L102.682,95.061L102.869,94.827L103.054,94.592L103.239,94.356L103.422,94.119L103.603,93.881L103.783,93.642L103.962,93.402L104.139,93.16L104.315,92.918L104.489,92.674L104.662,92.429L104.834,92.184L105.004,91.937L105.173,91.689L105.34,91.44L105.505,91.19L105.67,90.939L105.833,90.686L105.994,90.433L106.154,90.179L106.312,89.924L106.469,89.668L106.624,89.41L106.778,89.152L106.93,88.893L107.081,88.633L107.23,88.371L107.378,88.109L107.524,87.846L107.669,87.582L107.812,87.317L107.953,87.051L108.093,86.784L108.232,86.516L108.368,86.247L108.503,85.977L108.637,85.706L108.769,85.435L108.9,85.162L109.156,84.614L109.281,84.339L109.405,84.063L109.527,83.786L109.648,83.508L109.767,83.229L109.884,82.949L110,82.669L110.114,82.387L110.226,82.105L110.337,81.822L110.446,81.538L110.553,81.253L110.659,80.968L110.763,80.682L110.865,80.394L110.966,80.106L111.065,79.818L111.162,79.528L111.257,79.238L111.351,78.947L111.442,78.655L111.533,78.362L111.621,78.069L111.708,77.774L111.792,77.48L111.875,77.184L111.957,76.887L112.036,76.59L112.114,76.292L112.19,75.994L112.264,75.695L112.336,75.395L112.407,75.094L112.475,74.792L112.542,74.49L112.607,74.188L112.67,73.884L112.732,73.58L112.791,73.275L112.849,72.97L112.904,72.664L112.958,72.357L113.01,72.049L113.06,71.741L113.109,71.433L113.155,71.123L113.199,70.814L113.242,70.503L113.282,70.192L113.321,69.88L113.358,69.568L113.393,69.255L113.426,68.941L113.456,68.627L113.485,68.312L113.513,67.997L113.538,67.681L113.561,67.365L113.582,67.048L113.601,66.731L113.618,66.413L113.633,66.094L113.646,65.775L113.658,65.455L113.667,65.135L113.674,64.815L113.679,64.494L113.682,64.172L113.683,63.85L113.682,63.528L113.679,63.206L113.674,62.885L113.667,62.564L113.658,62.244L113.646,61.925L113.633,61.606L113.618,61.287L113.601,60.969L113.582,60.651L113.561,60.335L113.538,60.018L113.513,59.702L113.485,59.387L113.456,59.072L113.426,58.758L113.393,58.445L113.358,58.132L113.321,57.82L113.282,57.508L113.242,57.197L113.199,56.886L113.155,56.576L113.109,56.267L113.06,55.958L113.01,55.65L112.958,55.343L112.904,55.036L112.849,54.73L112.791,54.424L112.732,54.12L112.67,53.816L112.607,53.512L112.542,53.209L112.475,52.907L112.407,52.606L112.336,52.305L112.264,52.005L112.19,51.706L112.114,51.407L112.036,51.109L111.957,50.812L111.875,50.516L111.792,50.22L111.708,49.925L111.621,49.631L111.533,49.338L111.442,49.045L111.351,48.753L111.257,48.462L111.162,48.172L111.065,47.882L110.966,47.593L110.865,47.305L110.763,47.018L110.659,46.732L110.553,46.446L110.446,46.162L110.337,45.878L110.226,45.595L110.114,45.312L110,45.031L109.884,44.751L109.767,44.471L109.648,44.192L109.527,43.914L109.405,43.637L109.281,43.361L109.156,43.086L109.028,42.811L108.9,42.538L108.769,42.265L108.637,41.993L108.503,41.723L108.368,41.453L108.232,41.184L108.093,40.916L107.953,40.649L107.812,40.383L107.669,40.118L107.524,39.854L107.378,39.591L107.23,39.328L107.081,39.067L106.93,38.807L106.778,38.548L106.624,38.289L106.469,38.032L106.312,37.776L106.154,37.521L105.994,37.266L105.833,37.013L105.67,36.761L105.505,36.51L105.34,36.26L105.173,36.011L105.004,35.763L104.834,35.516L104.662,35.27L104.489,35.026L104.315,34.782L104.139,34.539L103.962,34.298L103.783,34.058L103.603,33.818L103.422,33.58L103.239,33.343L103.054,33.107L102.869,32.873L102.682,32.639L102.304,32.175L102.112,31.945L101.92,31.716L101.726,31.488L101.531,31.262L101.335,31.036L101.137,30.812L100.938,30.589L100.737,30.367L100.535,30.147L100.332,29.927L100.128,29.709L99.922,29.492L99.715,29.276L99.507,29.062L99.298,28.849L99.087,28.637L98.875,28.426L98.662,28.216L98.447,28.008L98.232,27.801L98.015,27.596L97.796,27.391L97.577,27.188L97.356,26.986L97.135,26.786L96.911,26.587L96.687,26.389L96.462,26.193L96.235,25.997L96.007,25.804L95.778,25.611L95.548,25.42L95.317,25.23L95.085,25.042L94.851,24.855L94.616,24.669L94.38,24.485L94.143,24.302L93.905,24.121L93.666,23.941L93.426,23.762L93.184,23.585L92.942,23.409L92.698,23.234L92.453,23.061L92.208,22.89L91.961,22.72L91.713,22.551L91.464,22.384L91.214,22.218L90.963,22.054L90.71,21.891L90.457,21.73L90.203,21.57L89.948,21.412L89.692,21.255L89.434,21.1L89.176,20.946L88.917,20.793L88.657,20.643L88.395,20.493L88.133,20.346L87.87,20.2L87.606,20.055L87.341,19.912L87.075,19.77L86.808,19.63L86.54,19.492L86.271,19.355L86.001,19.22L85.73,19.087L85.458,18.955L85.186,18.824L84.912,18.695L84.638,18.568L84.363,18.443L84.087,18.319L83.81,18.196L83.532,18.076L83.253,17.957L82.973,17.839L82.693,17.724L82.411,17.61L82.129,17.497L81.846,17.387L81.562,17.278L81.277,17.17L80.992,17.065L80.705,16.961L80.418,16.858L80.13,16.758L79.842,16.659L79.552,16.562L79.262,16.467L78.971,16.373L78.679,16.281L78.386,16.191L78.093,16.103L77.798,16.016L77.504,15.931L77.208,15.848L76.911,15.767L76.614,15.687L76.316,15.61L76.018,15.534L75.719,15.46L75.419,15.387L75.118,15.317L74.816,15.248L74.514,15.181L74.212,15.116L73.908,15.053L73.604,14.992L73.299,14.933L72.994,14.875L72.688,14.819L72.381,14.765L72.073,14.713L71.765,14.663L71.457,14.615L71.147,14.569L70.838,14.524L70.527,14.482L70.216,14.441L69.904,14.403L69.592,14.366L69.279,14.331L68.965,14.298L68.651,14.267L68.336,14.238L68.021,14.211L67.705,14.186L67.389,14.163L67.072,14.142L66.755,14.123L66.437,14.106L66.118,14.09L65.799,14.077L65.479,14.066L65.159,14.057L64.839,14.05L64.518,14.045L64.196,14.042L63.874,14.041L63.552,14.042Z" style="fill:white;"/>
        </g>
    </g>
</svg>
