<?xml version="1.0" encoding="UTF-8" standalone="no"?>
<!DOCTYPE svg PUBLIC "-//W3C//DTD SVG 1.1//EN" "http://www.w3.org/Graphics/SVG/1.1/DTD/svg11.dtd">
<svg width="100%" height="100%" viewBox="0 0 96 96" version="1.1" xmlns="http://www.w3.org/2000/svg" xmlns:xlink="http://www.w3.org/1999/xlink" xml:space="preserve" xmlns:serif="http://www.serif.com/" style="fill-rule:evenodd;clip-rule:evenodd;stroke-linejoin:round;stroke-miterlimit:2;">
    <g id="Substance-Source" serif:id="Substance Source">
        <g transform="matrix(1.40761,0,0,1.40761,1.50333,-0.101506)">
            <path d="M-1.068,34.172C-1.068,59.082 7.332,68.273 33.033,68.273C58.734,68.273 67.133,58.906 67.133,34.172C67.133,9.439 58.646,0.072 33.033,0.072C7.419,0.072 -1.068,9.263 -1.068,34.172Z" style="fill:rgb(26,26,26);"/>
        </g>
        <g transform="matrix(0.340549,0,0,0.340549,-20.1265,1.05543)">
            <path d="M248.4,197.3C246.3,201.6 242,204.5 237.2,204.9L172.7,209.5C167.9,209.8 163.3,207.6 160.6,203.6L124.3,150C121.6,146 121.2,140.9 123.3,136.5L151.6,78.3C153.7,74 158,71.1 162.8,70.7L227.3,66.1C232.1,65.8 236.7,68 239.4,72L275.6,125.6C278.3,129.6 278.7,134.7 276.6,139.1L248.4,197.3ZM180.8,59.3C137.4,69.9 110.9,113.7 121.5,157.1C132.1,200.5 175.9,227 219.3,216.4C262.7,205.8 289.2,162 278.6,118.6C267.9,75.2 224.1,48.7 180.8,59.3Z" style="fill:rgb(0,160,154);fill-rule:nonzero;"/>
        </g>
        <g transform="matrix(0.340549,0,0,0.340549,-20.1265,1.05543)">
            <path d="M254.3,134.9L229.2,126.8L229.2,121L200,104.1L178.6,116.5L254.3,140.7L254.3,169.1L200,200.5L145.7,169.2L145.7,140.8L170.8,148.8L170.8,154.7L200,171.6L221.9,158.9L145.7,134.9L145.7,106.5L200,75.2L254.3,106.5L254.3,134.9ZM270.1,149.3L253.9,91.6C252.7,87.3 249.3,84 244.9,82.9L186.9,68C182.6,66.9 178,68.2 174.9,71.4L133,114.3C129.9,117.5 128.7,122.1 129.9,126.4L146.1,184.1C147.3,188.4 150.7,191.7 155.1,192.8L213.2,207.6C217.5,208.7 222.1,207.4 225.2,204.2L267.1,161.3C270.2,158.2 271.3,153.6 270.1,149.3Z" style="fill:rgb(0,160,154);fill-rule:nonzero;"/>
        </g>
    </g>
</svg>
