<?xml version="1.0" encoding="UTF-8" standalone="no"?>
<!DOCTYPE svg PUBLIC "-//W3C//DTD SVG 1.1//EN" "http://www.w3.org/Graphics/SVG/1.1/DTD/svg11.dtd">
<svg width="100%" height="100%" viewBox="0 0 96 96" version="1.1" xmlns="http://www.w3.org/2000/svg" xmlns:xlink="http://www.w3.org/1999/xlink" xml:space="preserve" xmlns:serif="http://www.serif.com/" style="fill-rule:evenodd;clip-rule:evenodd;stroke-linejoin:round;stroke-miterlimit:2;">
    <g id="Substance-Designer" serif:id="Substance Designer">
        <g transform="matrix(1.40761,0,0,1.40761,1.50333,-0.101506)">
            <path d="M-1.068,34.172C-1.068,59.082 7.332,68.273 33.033,68.273C58.734,68.273 67.133,58.906 67.133,34.172C67.133,9.439 58.646,0.072 33.033,0.072C7.419,0.072 -1.068,9.263 -1.068,34.172Z" style="fill:rgb(26,26,26);"/>
        </g>
        <g transform="matrix(0.315849,0,0,0.315849,-15.265,6.95822)">
            <path d="M254.5,135.3L229.4,127.2L229.4,121.4L200.2,104.5L178.8,117L254.5,141.2L254.5,169.6L200.2,200.9L145.9,169.6L145.9,141.2L171,149.2L171,155.1L200.2,172L222.1,159.3L145.9,135.3L145.9,106.9L200.2,75.6L254.5,106.9L254.5,135.3ZM319.4,133.7L280.5,133.7L280.5,69.3C280.5,63.1 275.5,58.1 269.3,58.1L204.9,58.1L204.9,19.2C204.9,16.2 202.7,13.7 200,13.7C197.3,13.7 195.1,16.1 195.1,19.2L195.1,58.1L130.5,58.1C124.3,58.1 119.3,63.1 119.3,69.3L119.3,133.9L80.9,133.9C77.9,133.9 75.4,136.1 75.4,138.8C75.4,141.5 77.8,143.7 80.9,143.7L119.5,143.7L119.5,208.3C119.5,214.5 124.5,219.5 130.7,219.5L269.6,219.5C275.8,219.5 280.8,214.5 280.8,208.3L280.8,143.7L319.7,143.7C322.7,143.7 325.2,141.5 325.2,138.8C325,136 322.4,133.7 319.4,133.7Z" style="fill:rgb(231,64,22);fill-rule:nonzero;"/>
        </g>
    </g>
</svg>
