<?xml version="1.0" encoding="UTF-8" standalone="no"?>
<!DOCTYPE svg PUBLIC "-//W3C//DTD SVG 1.1//EN" "http://www.w3.org/Graphics/SVG/1.1/DTD/svg11.dtd">
<svg width="100%" height="100%" viewBox="0 0 96 96" version="1.1" xmlns="http://www.w3.org/2000/svg" xmlns:xlink="http://www.w3.org/1999/xlink" xml:space="preserve" xmlns:serif="http://www.serif.com/" style="fill-rule:evenodd;clip-rule:evenodd;stroke-linejoin:round;stroke-miterlimit:2;">
    <g id="Substance-Painter" serif:id="Substance Painter">
        <g transform="matrix(1.40761,0,0,1.40761,1.50333,-0.101506)">
            <path d="M-1.068,34.172C-1.068,59.082 7.332,68.273 33.033,68.273C58.734,68.273 67.133,58.906 67.133,34.172C67.133,9.439 58.646,0.072 33.033,0.072C7.419,0.072 -1.068,9.263 -1.068,34.172Z" style="fill:rgb(26,26,26);"/>
        </g>
        <g transform="matrix(0.918425,0,0,0.918425,3.56952,5.01549)">
            <g transform="matrix(0.346653,0,0,0.346653,16.5918,33.2397)">
                <path d="M83.15,-27.884C38.35,-27.884 2.15,8.416 2.15,53.116C2.15,97.916 38.45,134.116 83.15,134.116C127.95,134.116 164.15,97.816 164.15,53.116C164.15,8.416 127.75,-27.884 83.15,-27.884Z" style="fill:rgb(220,25,34);"/>
            </g>
            <g transform="matrix(1.046,0,0,1.046,-3.97259,-0.440749)">
                <path d="M79.462,62.893C83.274,62.893 86.356,65.975 86.356,69.786C86.356,73.597 83.274,76.679 79.462,76.679C75.651,76.679 72.569,73.597 72.569,69.786C72.569,65.975 75.651,62.893 79.462,62.893ZM19.643,66.77C21.334,66.77 22.692,68.129 22.692,69.819C22.692,71.509 21.334,72.868 19.643,72.868C17.953,72.868 16.594,71.509 16.594,69.819C16.594,68.129 17.986,66.77 19.643,66.77ZM46.388,9.702C48.741,9.139 51.094,10.597 51.657,12.95C52.221,15.303 50.763,17.656 48.41,18.219C46.057,18.783 43.704,17.324 43.14,14.971C42.577,12.585 44.035,10.232 46.388,9.702Z" style="fill:rgb(220,25,34);"/>
            </g>
            <g transform="matrix(0.346653,0,0,0.346653,-23.7759,3.64111)">
                <path d="M253.9,135.6L253.9,107.1L199.6,75.8L145.3,107.1L145.3,135.5L221.5,159.5L199.6,172.2L170.4,155.3L170.4,149.4L145.3,141.4L145.3,169.8L199.6,201.1L253.9,169.8L253.9,141.4L178.2,117.2L199.6,104.8L228.8,121.7L228.8,127.5L253.9,135.6Z" style="fill:rgb(26,26,26);"/>
            </g>
        </g>
    </g>
</svg>
