<?xml version="1.0" encoding="UTF-8" standalone="no"?>
<!DOCTYPE svg PUBLIC "-//W3C//DTD SVG 1.1//EN" "http://www.w3.org/Graphics/SVG/1.1/DTD/svg11.dtd">
<svg width="100%" height="100%" viewBox="0 0 96 96" version="1.1" xmlns="http://www.w3.org/2000/svg" xmlns:xlink="http://www.w3.org/1999/xlink" xml:space="preserve" xmlns:serif="http://www.serif.com/" style="fill-rule:evenodd;clip-rule:evenodd;stroke-linejoin:round;stroke-miterlimit:2;">
    <g id="TicketMaster">
        <g transform="matrix(1.40761,0,0,1.40761,1.50275,-0.101506)">
            <path d="M-1.068,34.172C-1.068,59.082 7.332,68.273 33.033,68.273C58.734,68.273 67.133,58.906 67.133,34.172C67.133,9.439 58.646,0.072 33.033,0.072C7.419,0.072 -1.068,9.263 -1.068,34.172Z" style="fill:rgb(244,67,54);"/>
        </g>
        <g transform="matrix(-1.5199,1.5199,1.5199,1.5199,48.0008,11.5267)">
            <path d="M22.869,10L22.869,6C22.869,4.89 21.969,4 20.869,4L3.125,4C2.028,4 1.125,4.903 1.125,6L1.125,10C2.235,10 3.125,10.9 3.125,12C3.125,13.097 2.223,14 1.125,14L1.125,18C1.125,19.097 2.028,20 3.125,20L20.869,20C21.966,20 22.869,19.097 22.869,18L22.869,14C21.772,14 20.869,13.097 20.869,12C20.869,10.903 21.772,10 22.869,10Z" style="fill:none;stroke:white;stroke-width:1.16px;"/>
        </g>
        <path d="M64.465,48.269L66.871,45.864L63.465,42.458L61.06,44.864L64.465,48.269ZM57.803,41.607L60.209,39.202L56.803,35.796L54.398,38.202L57.803,41.607ZM51.141,34.945L53.547,32.54L50.141,29.134L47.736,31.54L51.141,34.945Z" style="fill:white;"/>
        <g transform="matrix(1.32564,0,0,1.32564,-20.384,-20.1236)">
            <circle cx="62.596" cy="61.796" r="9.792" style="fill:rgb(244,67,54);"/>
        </g>
        <path d="M62.596,52.005C68,52.005 72.388,56.392 72.388,61.796C72.388,67.201 68,71.588 62.596,71.588C57.192,71.588 52.805,67.201 52.805,61.796C52.805,56.392 57.192,52.005 62.596,52.005ZM57.661,63.03L61.362,63.03L61.362,66.732L63.83,66.732L63.83,63.03L67.532,63.03L67.532,60.563L63.83,60.563L63.83,56.861L61.362,56.861L61.362,60.563L57.661,60.563L57.661,63.03Z" style="fill:white;"/>
    </g>
</svg>
