<?xml version="1.0" encoding="UTF-8" standalone="no"?>
<!DOCTYPE svg PUBLIC "-//W3C//DTD SVG 1.1//EN" "http://www.w3.org/Graphics/SVG/1.1/DTD/svg11.dtd">
<svg width="100%" height="100%" viewBox="0 0 96 96" version="1.1" xmlns="http://www.w3.org/2000/svg" xmlns:xlink="http://www.w3.org/1999/xlink" xml:space="preserve" xmlns:serif="http://www.serif.com/" style="fill-rule:evenodd;clip-rule:evenodd;stroke-linejoin:round;stroke-miterlimit:2;">
    <g id="Blender">
        <g transform="matrix(1.40761,0,0,1.40761,1.50275,-0.101506)">
            <path d="M-1.068,34.172C-1.068,59.082 7.332,68.273 33.033,68.273C58.734,68.273 67.133,58.906 67.133,34.172C67.133,9.439 58.646,0.072 33.033,0.072C7.419,0.072 -1.068,9.263 -1.068,34.172Z"/>
        </g>
        <g transform="matrix(0.0591765,0,0,0.0591765,18.4155,18.4133)">
            <path d="M513.4,168.7C509.7,150 514.4,130.5 527.4,110.4C542.7,86.2 560.8,72.9 581.6,70.2C608.5,67.1 633.4,81.4 656.6,112.5C678.1,141.5 687.6,168.7 685.2,193.6C684.9,208.6 662.7,217.8 618.8,220.8C584.4,223.5 559.5,220.1 543.5,210.2C526.7,200.4 516.8,186.4 513.4,168.7ZM988.3,926.8C985.9,931.9 977.4,931.2 962.7,924.7C937.8,912.8 910.2,894.7 879.2,870.2C844.8,843 824.7,821.5 819.2,805.8C818.2,802.1 818.5,797.3 820.6,791.2L827.1,773.8C831.5,757.8 825.7,741.8 809.7,725.8C801.9,718 791.3,710.5 778.4,703.3C748.1,687.3 704.5,673.7 646.9,662.8C587.3,651.6 530.4,645.1 476.2,643.7L410.4,647.1C393,667.2 376.3,685.9 360.3,703.3C346.7,717.6 333.4,730.9 320.4,743.2C268.3,789.9 217.5,825.3 167.8,849.8C100,882.9 49.2,892.4 14.8,877.7C10.4,874.6 9,869.5 10.4,862.4L16.5,843.3C40,792.2 78.5,745.5 131.3,703.3C135.7,699.6 140.5,696.1 144.9,692.7C186.8,661.7 243.4,629 314.6,595.3C361.3,575.2 399.8,561.9 429.8,555.4L458.1,516.2C469.3,502.2 481.3,488.9 493.2,476.3C518.8,448.7 545,423.2 572.6,400.3C575,399.3 575.3,397.9 573.9,396.2C559.9,388.4 537.1,373.7 506.1,352.2C479.5,334.1 458.7,321.5 443.7,314.7C396.7,293.6 348.6,299.7 299.3,333.1C269.7,352.9 253.6,374.7 251.9,398.5L250.2,427.8C251.9,436 225.7,449.6 171.8,468.7C161.9,471.8 153.7,474.5 146.9,476.2C135,478.6 126.8,478.9 122.7,476.9L121.3,476.2L117.6,473.8C112.8,464.3 135.3,431.6 184.7,375.3C188.1,371.5 191.6,367.8 195,364.1L195.2,363.9C284.6,269.8 390.1,233.4 511.4,255C544.8,260.8 600,281.2 677.3,316C685.8,307.5 700.5,297.3 720.6,285.7C746.2,271.1 767.3,263.2 783.3,262.9C818.4,262.6 840.5,275.8 849.7,303.4C855.1,320.1 842.9,343.6 812.6,373.9C781.3,405.9 751.6,426 723.7,434.2C688.6,444.8 650.4,438.6 609.9,416.5C591.9,430.5 571.4,450.6 549.3,476.1C548.3,477.1 547.3,478.5 546.2,479.5L494,542.5L493.3,546.9L529.4,545.5C555.3,546.2 581.5,550.6 608.4,559.1C681.7,582.6 743,611.6 792.4,646C815.9,662.7 838.8,681.8 860.2,703.2C882.3,725.7 903.8,750.9 923.9,778.5C941.6,803 956.6,827.9 969.2,852.8C987,887.6 993.4,912.1 988.3,926.8ZM719.8,329.9C726.3,335 741.6,337.1 766.5,336C794.1,335 812.8,329.5 823.4,319C828.5,313.9 828.5,308.8 822.7,304C816.2,298.2 804.3,296.8 787.3,299.2C772.6,301.6 757,306.7 739.9,314.5C723.3,322.4 716.4,327.5 719.8,329.9ZM348.1,656.3L340.3,655.3C316.8,660.1 295,665.5 274.9,671.7C246.6,680.9 220.4,691.5 196.2,703.4C176.8,712.6 158.7,722.8 142,733.7C88.9,768 64.3,801.4 68.8,833.8L73.9,839.6C87.9,848.8 115.5,841.6 156.3,818.1C211.8,785.7 261.6,747.6 305.5,703.3C320.2,688.3 334.5,672.6 348.1,656.3Z" style="fill:white;fill-rule:nonzero;"/>
        </g>
    </g>
</svg>
