<?xml version="1.0" encoding="UTF-8" standalone="no"?>
<!DOCTYPE svg PUBLIC "-//W3C//DTD SVG 1.1//EN" "http://www.w3.org/Graphics/SVG/1.1/DTD/svg11.dtd">
<svg width="100%" height="100%" viewBox="0 0 96 96" version="1.1" xmlns="http://www.w3.org/2000/svg" xmlns:xlink="http://www.w3.org/1999/xlink" xml:space="preserve" xmlns:serif="http://www.serif.com/" style="fill-rule:evenodd;clip-rule:evenodd;stroke-linejoin:round;stroke-miterlimit:2;">
    <g id="Max">
        <g transform="matrix(1.40761,0,0,1.40761,1.50275,-0.101506)">
            <path d="M-1.068,34.172C-1.068,59.082 7.332,68.273 33.033,68.273C58.734,68.273 67.133,58.906 67.133,34.172C67.133,9.439 58.646,0.072 33.033,0.072C7.419,0.072 -1.068,9.263 -1.068,34.172Z" style="fill:rgb(0,183,183);"/>
        </g>
        <g id="Layer_1_copy" transform="matrix(0.212545,0,0,0.212545,16.5471,17.029)">
            <path d="M167.965,140.977L175.819,115.736L133.451,133.348L167.965,140.977M259.905,93.386C227.664,60.774 149.307,66.817 118.529,74.447C82.552,83.652 72.964,111.009 73.898,155.448C74.304,180.96 85.354,203.591 106.938,211.219C150.782,226.456 188.356,224.352 227.799,186.485C207.555,164.654 190.765,157.035 163.171,159.129C136.388,160.445 121.208,156.236 102.144,135.463C125.326,113.113 139.584,102.333 167.571,99.429C198.889,96.278 226.73,109.433 238.862,121.778C250.171,133.347 255.91,159.916 253.119,192.01C250.993,218.051 242.721,233.299 223.657,238.823C199.013,246.453 163.305,250.134 130.401,248.817C91.487,247.252 71.095,239.341 65.357,233.298C53.383,219.895 44.583,191.491 42.58,158.879C40.588,126.256 45.641,95.489 55.78,78.654C65.762,61.819 102.807,49.992 157.307,46.571C202.759,43.938 244.995,47.359 245.523,47.359L242.72,11.067C242.72,11.067 145.446,22.377 130.524,23.682C94.412,27.103 45.787,34.992 29.525,62.349C0.47,111.268 7.807,215.406 42.985,254.344C74.427,289.329 183.563,283.535 232.47,268.816C254.448,262.244 279.363,244.081 283.628,194.644C286.553,162.021 282.029,115.994 259.905,93.386ZM162.102,180.7L196.617,188.33L154.249,205.942L162.102,180.7Z" style="fill:white;fill-rule:nonzero;"/>
        </g>
    </g>
</svg>
